{
    "asset" : {
        "generator" : "Khronos glTF Blender I/O v1.8.19",
        "version" : "2.0"
    },
    "scene" : 0,
    "scenes" : [
        {
            "name" : "Scene",
            "nodes" : [
                0
            ]
        }
    ],
    "nodes" : [
        {
            "mesh" : 0,
            "name" : "Nodes"
        }
    ],
    "materials" : [
        {
            "name" : "Mat",
            "pbrMetallicRoughness" : {
                "baseColorTexture" : {
                    "index" : 0
                },
                "metallicFactor" : 0,
                "roughnessFactor" : 0.9039215445518494
            }
        }
    ],
    "meshes" : [
        {
            "name" : "High-end_headset_01_Cube.027-Mesh",
            "primitives" : [
                {
                    "attributes" : {
                        "POSITION" : 0,
                        "NORMAL" : 1,
                        "TEXCOORD_0" : 2
                    },
                    "indices" : 3,
                    "material" : 0
                }
            ]
        }
    ],
    "textures" : [
        {
            "sampler" : 0,
            "source" : 0
        }
    ],
    "images" : [
        {
            "bufferView" : 4,
            "mimeType" : "image/png",
            "name" : "1A1A1A Base Color"
        }
    ],
    "accessors" : [
        {
            "bufferView" : 0,
            "componentType" : 5126,
            "count" : 1844,
            "max" : [
                8.175168991088867,
                9.969425201416016,
                5.237863063812256
            ],
            "min" : [
                -8.175168991088867,
                0.08889699727296829,
                -17.087486267089844
            ],
            "type" : "VEC3"
        },
        {
            "bufferView" : 1,
            "componentType" : 5126,
            "count" : 1844,
            "type" : "VEC3"
        },
        {
            "bufferView" : 2,
            "componentType" : 5126,
            "count" : 1844,
            "type" : "VEC2"
        },
        {
            "bufferView" : 3,
            "componentType" : 5123,
            "count" : 2208,
            "type" : "SCALAR"
        }
    ],
    "bufferViews" : [
        {
            "buffer" : 0,
            "byteLength" : 22128,
            "byteOffset" : 0
        },
        {
            "buffer" : 0,
            "byteLength" : 22128,
            "byteOffset" : 22128
        },
        {
            "buffer" : 0,
            "byteLength" : 14752,
            "byteOffset" : 44256
        },
        {
            "buffer" : 0,
            "byteLength" : 4416,
            "byteOffset" : 59008
        },
        {
            "buffer" : 0,
            "byteLength" : 30390,
            "byteOffset" : 63424
        }
    ],
    "samplers" : [
        {
            "magFilter" : 9729,
            "minFilter" : 9987
        }
    ],
    "buffers" : [
        {
            "byteLength" : 93816,
            "uri" : "data:application/octet-stream;base64,"
        }
    ]
}
